<svg xmlns="http://www.w3.org/2000/svg" xmlns:xlink="http://www.w3.org/1999/xlink" width="60" zoomAndPan="magnify" viewBox="0 0 45 30.000001" height="40" preserveAspectRatio="xMidYMid meet" version="1.0"><defs><clipPath id="a2f942ec27"><path d="M 1 3 L 44.273438 3 L 44.273438 26 L 1 26 Z M 1 3 " clip-rule="nonzero"/></clipPath><clipPath id="334253580d"><path d="M 0.894531 2.902344 L 44.273438 2.902344 L 44.273438 26.128906 L 0.894531 26.128906 Z M 0.894531 2.902344 " clip-rule="nonzero"/></clipPath></defs><g clip-path="url(#a2f942ec27)"><path fill="#ffffff" d="M 37.902344 10.484375 C 37.910156 10.367188 37.925781 10.246094 37.925781 10.125 C 37.925781 6.222656 33.753906 3.054688 28.605469 3.054688 C 25.617188 3.054688 22.964844 4.128906 21.261719 5.78125 C 19.867188 5.15625 18.246094 4.789062 16.507812 4.789062 C 11.964844 4.789062 8.191406 7.25 7.359375 10.507812 C 3.6875 11.457031 1.042969 14.085938 1.042969 17.191406 C 1.042969 21.097656 5.214844 24.261719 10.363281 24.261719 C 12.347656 24.261719 14.179688 23.789062 15.691406 22.988281 C 17.378906 24.800781 20.15625 25.992188 23.308594 25.992188 C 26.214844 25.992188 28.808594 24.980469 30.515625 23.402344 C 31.839844 23.949219 33.359375 24.261719 34.972656 24.261719 C 40.121094 24.261719 44.292969 21.097656 44.292969 17.191406 C 44.292969 14.066406 41.613281 11.417969 37.902344 10.484375 " fill-opacity="1" fill-rule="nonzero"/></g><g clip-path="url(#334253580d)"><path fill="#ffffff" d="M 37.902344 10.484375 L 38.046875 10.496094 C 38.054688 10.382812 38.074219 10.261719 38.074219 10.125 C 38.074219 8.121094 37 6.3125 35.285156 5.011719 C 33.570312 3.710938 31.210938 2.910156 28.605469 2.910156 C 25.582031 2.910156 22.894531 3.992188 21.15625 5.679688 L 21.261719 5.78125 L 21.320312 5.652344 C 19.90625 5.011719 18.265625 4.640625 16.507812 4.640625 C 14.210938 4.640625 12.105469 5.265625 10.464844 6.304688 C 8.824219 7.34375 7.644531 8.800781 7.21875 10.472656 L 7.359375 10.507812 L 7.324219 10.367188 C 5.460938 10.847656 3.859375 11.753906 2.71875 12.941406 C 1.578125 14.125 0.894531 15.597656 0.894531 17.191406 C 0.894531 19.199219 1.96875 21.007812 3.683594 22.304688 C 5.398438 23.605469 7.757812 24.40625 10.363281 24.40625 C 12.371094 24.40625 14.226562 23.925781 15.761719 23.117188 L 15.691406 22.988281 L 15.582031 23.085938 C 17.304688 24.933594 20.121094 26.136719 23.308594 26.136719 C 26.25 26.136719 28.878906 25.117188 30.617188 23.507812 L 30.515625 23.402344 L 30.460938 23.535156 C 31.804688 24.089844 33.339844 24.40625 34.972656 24.40625 C 37.578125 24.40625 39.9375 23.605469 41.652344 22.304688 C 43.367188 21.007812 44.441406 19.199219 44.441406 17.191406 C 44.441406 15.585938 43.753906 14.105469 42.597656 12.914062 C 41.441406 11.722656 39.816406 10.816406 37.9375 10.34375 L 37.902344 10.484375 L 38.046875 10.496094 L 37.902344 10.484375 L 37.867188 10.628906 C 39.699219 11.085938 41.273438 11.96875 42.382812 13.117188 C 43.496094 14.265625 44.148438 15.671875 44.148438 17.191406 C 44.148438 19.089844 43.132812 20.816406 41.476562 22.074219 C 39.816406 23.332031 37.515625 24.113281 34.972656 24.113281 C 33.378906 24.113281 31.878906 23.808594 30.574219 23.265625 L 30.488281 23.230469 L 30.417969 23.292969 C 28.742188 24.847656 26.179688 25.84375 23.308594 25.84375 C 20.195312 25.84375 17.453125 24.667969 15.796875 22.890625 L 15.722656 22.804688 L 15.621094 22.859375 C 14.132812 23.648438 12.324219 24.113281 10.363281 24.113281 C 7.820312 24.113281 5.519531 23.332031 3.863281 22.074219 C 2.203125 20.816406 1.1875 19.089844 1.1875 17.191406 C 1.1875 15.679688 1.832031 14.285156 2.929688 13.140625 C 4.027344 12 5.585938 11.117188 7.394531 10.648438 L 7.480469 10.625 L 7.5 10.542969 C 7.90625 8.957031 9.03125 7.554688 10.621094 6.546875 C 12.210938 5.542969 14.261719 4.933594 16.507812 4.933594 C 18.222656 4.933594 19.824219 5.296875 21.199219 5.914062 L 21.289062 5.957031 L 21.363281 5.886719 C 23.035156 4.261719 25.652344 3.203125 28.605469 3.203125 C 31.148438 3.203125 33.449219 3.984375 35.105469 5.242188 C 36.765625 6.5 37.78125 8.226562 37.78125 10.125 C 37.78125 10.234375 37.765625 10.351562 37.757812 10.476562 L 37.75 10.597656 L 37.867188 10.628906 L 37.902344 10.484375 " fill-opacity="1" fill-rule="nonzero"/></g></svg>